#!OML:ASF I:\Actors\actors\Patient Classification 2\Patient 1\Session 1\actor1.ASF
:FULLY-SPECIFIED
:DEGREES
514
root -1.03662 18.953 5.17138 21.9056 4.22026 -0.845922
lowerback 21.9369 -0.725204 1.22009
upperback 0.11099 -0.553472 0.683098
thorax -12.235 -0.301412 0.242366
lowerneck -13.1224 -2.67521 -3.43119
upperneck -0.713264 -3.16403 3.26818
head 2.16536 -1.47902 1.47002
rclavicle -2.04997e-016 -7.85199e-015
rhumerus 49.6805 53.0115 -65.08
rradius 143.752
rwrist 1.68114
rhand -34.6606 -32.2618
rfingers 7.12502
rthumb -7.81715 -62.0973
lclavicle -2.04997e-016 -7.85199e-015
lhumerus 52.522 -50.1867 61.1419
lradius 142.634
lwrist 17.0785
lhand -26.1893 -58.0753
lfingers 7.12502
lthumb 0.362954 -28.0959
rfemur -17.0129 -3.2324 16.9557
rtibia 5.56597e-015
rfoot -15.5108 -16.084
rtoes -2.25232
lfemur -32.5526 -7.18069 -7.83003
ltibia 22.9215
lfoot -14.4534 11.3241
ltoes -55.9616
515
root -1.03578 18.9525 5.17322 21.8623 4.03654 -0.798113
lowerback 21.7101 -0.843444 1.59103
upperback 0.126472 -0.6058 0.799411
thorax -12.093 -0.343469 0.173774
lowerneck -13.0815 -2.6203 -3.36856
upperneck -0.541225 -3.08501 2.7383
head 2.19779 -1.45733 1.29037
rclavicle 8.62228e-015 -5.46658e-015
rhumerus 49.715 52.8977 -65.2173
rradius 143.862
rwrist 0.723718
rhand -33.949 -32.5448
rfingers 7.12502
rthumb -7.13038 -62.4047
lclavicle 8.62228e-015 -5.46658e-015
lhumerus 52.2437 -50.3969 61.2495
lradius 142.69
lwrist 17.0149
lhand -26.4291 -58.3697
lfingers 7.12502
lthumb 0.13132 -28.3899
rfemur -16.9631 -3.04681 16.8294
rtibia -1.27222e-014
rfoot -15.5935 -16.0629
rtoes -1.74645
lfemur -32.4025 -6.97556 -7.98513
ltibia 22.849
lfoot -14.4494 11.2203
ltoes -55.9424
516
root -1.03422 18.9527 5.17303 21.8575 3.86066 -0.706429
lowerback 21.4404 -0.967002 1.91918
upperback 0.134531 -0.680188 0.908201
thorax -11.9357 -0.393115 0.127067
lowerneck -12.8432 -2.55699 -3.08402
upperneck -0.590459 -3.02206 1.95896
head 2.11004 -1.45251 0.991852
rclavicle 5.96354e-015 5.96354e-016
rhumerus 49.8028 52.7974 -65.3279
rradius 143.962
rwrist -0.303687
rhand -33.3599 -33.0099
rfingers 7.12502
rthumb -6.56169 -62.8882
lclavicle 5.96354e-015 5.96354e-016
lhumerus 51.9056 -50.7466 61.2747
lradius 142.8
lwrist 16.7219
lhand -26.9102 -58.6767
lfingers 7.12502
lthumb -0.333313 -28.6972
rfemur -16.9628 -2.89066 16.6573
rtibia -6.36111e-015
rfoot -15.6778 -16.0476
rtoes -1.2375
lfemur -32.3058 -6.7896 -8.17513
ltibia 22.7757
lfoot -14.4105 11.135
ltoes -55.9695
517
root -1.03214 18.9533 5.17182 21.8678 3.68174 -0.59774
lowerback 21.1873 -1.08648 2.22221
upperback 0.138514 -0.757585 1.014
thorax -11.7928 -0.442577 0.091873
lowerneck -12.6882 -2.4762 -2.7412
upperneck -0.606499 -2.9403 1.11688
head 2.04808 -1.43905 0.666431
rclavicle -1.09332e-014 -4.87022e-015
rhumerus 49.9144 52.6975 -65.3902
rradius 144.106
rwrist -1.40126
rhand -32.8213 -33.6345
rfingers 7.12502
rthumb -6.04172 -63.5284
lclavicle -1.09332e-014 -4.87022e-015
lhumerus 51.6342 -51.2424 61.2509
lradius 142.839
lwrist 16.3118
lhand -27.1961 -59.2131
lfingers 7.12502
lthumb -0.609535 -29.2342
rfemur -16.9924 -2.74044 16.4653
rtibia 6.2816e-014
rfoot -15.764 -16.1009
rtoes -1.34599
lfemur -32.2336 -6.64171 -8.37221
ltibia 22.706
lfoot -14.3531 11.1011
ltoes -56.0507
518
root -1.02984 18.9535 5.17142 21.8497 3.45529 -0.5128
lowerback 20.9561 -1.17459 2.53896
upperback 0.154373 -0.792567 1.11558
thorax -11.6488 -0.473005 0.0306774
lowerneck -12.6687 -2.41431 -2.49601
upperneck -0.468944 -2.86681 0.327948
head 2.06835 -1.42823 0.374838
rclavicle -1.07344e-014 6.36111e-015
rhumerus 49.9269 52.3844 -65.584
rradius 144.236
rwrist -2.70102
rhand -32.2031 -34.2084
rfingers 7.12502
rthumb -5.44479 -64.1184
lclavicle -1.07344e-014 6.36111e-015
lhumerus 51.6617 -51.5902 61.238
lradius 142.786
lwrist 16.2427
lhand -27.4484 -59.6905
lfingers 7.12502
lthumb -0.853202 -29.7124
rfemur -17.0025 -2.53431 16.2804
rtibia 4.21423e-014
rfoot -15.7611 -16.1944
rtoes -1.80225
lfemur -32.1164 -6.48179 -8.55696
ltibia 22.6405
lfoot -14.3266 11.0667
ltoes -56.0471
519
root -1.02876 18.9542 5.1713 21.7941 3.17637 -0.439595
lowerback 20.787 -1.25006 2.84582
upperback 0.171147 -0.814909 1.19991
thorax -11.5388 -0.497435 -0.0471129
lowerneck -12.7059 -2.38775 -2.33349
upperneck -0.235903 -2.82714 -0.379667
head 2.13683 -1.43306 0.120822
rclavicle 1.08338e-014 -1.27222e-014
rhumerus 49.9228 51.8716 -65.9901
rradius 144.251
rwrist -4.14623
rhand -31.3954 -34.7307
rfingers 7.12502
rthumb -4.66495 -64.6594
lclavicle 1.08338e-014 -1.27222e-014
lhumerus 51.688 -51.7882 61.228
lradius 142.829
lwrist 16.4366
lhand -27.7749 -59.9837
lfingers 7.12502
lthumb -1.16853 -30.0072
rfemur -16.9799 -2.27073 16.0907
rtibia -2.8625e-014
rfoot -15.7372 -16.2614
rtoes -2.0146
lfemur -31.9458 -6.28065 -8.74948
ltibia 22.5718
lfoot -14.3287 11.0455
ltoes -56.0186
520
root -1.02946 18.955 5.17104 21.7252 2.87483 -0.381001
lowerback 20.699 -1.32661 3.13636
upperback 0.175111 -0.840237 1.28225
thorax -11.4892 -0.522592 -0.115253
lowerneck -12.8203 -2.35725 -2.23958
upperneck 0.0533587 -2.77033 -0.984513
head 2.24306 -1.42774 -0.0894821
rclavicle 6.95746e-015 5.96354e-016
rhumerus 49.9858 51.5151 -66.3419
rradius 144.267
rwrist -5.55409
rhand -30.4302 -34.982
rfingers 7.12502
rthumb -3.73288 -64.929
lclavicle 6.95746e-015 5.96354e-016
lhumerus 51.4023 -52.1031 61.4211
lradius 142.851
lwrist 16.6901
lhand -27.3515 -60.8178
lfingers 7.12502
lthumb -0.759614 -30.8394
rfemur -16.9462 -1.97797 15.9106
rtibia -4.6118e-014
rfoot -15.8029 -16.2897
rtoes -1.82248
lfemur -31.7532 -6.05652 -8.93202
ltibia 22.4914
lfoot -14.3416 11.0643
ltoes -56.0449
